<svg xmlns="http://www.w3.org/2000/svg" xmlns:xlink="http://www.w3.org/1999/xlink" width="149.71" height="119.02" viewBox="0 0 149.71 119.02">
  <defs>
    <linearGradient id="linear-gradient" x1="0.5" y1="1" x2="0.5" gradientUnits="objectBoundingBox">
      <stop offset="0" stop-color="gray" stop-opacity="0.251"/>
      <stop offset="0.54" stop-color="gray" stop-opacity="0.122"/>
      <stop offset="1" stop-color="gray" stop-opacity="0.102"/>
    </linearGradient>
  </defs>
  <g id="undraw_book_lover_mkck" transform="translate(0 -0.008)">
    <path id="Path_408" data-name="Path 408" d="M187.738,85.744c-9.473-.329-18.5-3.387-27.112-6.733s-17.148-7.053-26.394-8.826c-5.947-1.14-12.749-1.3-17.539,1.887-4.612,3.074-6.1,8.365-6.9,13.28-.6,3.7-.957,7.588.7,11.049,1.146,2.4,3.182,4.423,4.589,6.733,4.9,8.009,1.437,17.886-3.871,25.706-2.488,3.669-5.379,7.172-7.3,11.074s-2.81,8.38-1.13,12.364c1.667,3.952,5.638,6.914,9.938,9,8.737,4.237,19.028,5.449,29.07,6.136,22.223,1.521,44.563.862,66.844.2,8.246-.244,16.528-.492,24.639-1.767,4.505-.708,9.155-1.831,12.427-4.545a10.409,10.409,0,0,0,2.4-13.595c-4.668-7.244-17.564-9.043-20.831-16.818-1.794-4.278.05-9.044,2.658-13.013,5.6-8.513,14.978-15.982,15.472-25.712.34-6.685-4.171-13.376-11.144-16.539-7.308-3.327-17.445-2.905-22.835,2.582C205.858,83.864,196.1,86.033,187.738,85.744Z" transform="translate(-99.938 -65.623)" fill="#0b032d" opacity="0.1"/>
    <path id="Path_409" data-name="Path 409" d="M114.236,440.881l-50.1-.244L59.16,428.961l17.6-1.278-3.068-12.8,34.815-4.512L75.171,398.78l2.945-.7,53.607,8.745L128.771,426.8l-4.22,10.979Z" transform="translate(-50.501 -339.808)" fill="#0b032d"/>
    <path id="Path_410" data-name="Path 410" d="M187,698.561a5.748,5.748,0,0,1,4.918,1.68s-1.352,1.066-4.262-.41Z" transform="translate(-172.595 -602.623)" fill="#0b032d"/>
    <path id="Path_411" data-name="Path 411" d="M177.435,698.51a5.732,5.732,0,0,0-1,5.1s1.6-.64,1.773-3.9Z" transform="translate(-163.352 -602.62)" fill="#0b032d"/>
    <path id="Path_412" data-name="Path 412" d="M172.76,666.848s1.229-2.255,6.147.9a2.76,2.76,0,0,1-2.828,1.393A3.333,3.333,0,0,1,172.76,666.848Z" transform="translate(-160.439 -574.926)" fill="#0b032d"/>
    <path id="Path_413" data-name="Path 413" d="M154.269,670.276s-2.551-.293-2.8,5.547a2.761,2.761,0,0,0,2.766-1.512A3.328,3.328,0,0,0,154.269,670.276Z" transform="translate(-142.265 -578.516)" fill="#0b032d"/>
    <path id="Path_414" data-name="Path 414" d="M160.44,625.845s1.434-3.975,6.639-1.148c0,0-1.189,3.647-6.106,2.5Z" transform="translate(-149.922 -538.744)" fill="#0b032d"/>
    <path id="Path_415" data-name="Path 415" d="M149.52,586.925s2.7-4.016,7.5-.293c0,0-1.68,3.77-7.09,1.721Z" transform="translate(-140.6 -505.766)" fill="#0b032d"/>
    <path id="Path_416" data-name="Path 416" d="M145.6,549.656s3.156-3.69,7.9,0c0,0-2.992,3.238-7.9.943Z" transform="translate(-137.254 -474.153)" fill="#0b032d"/>
    <path id="Path_417" data-name="Path 417" d="M142.24,511.341s3.2-3.852,7.746-.2c0,0-3.606,3.4-7.746,1.106Z" transform="translate(-134.386 -441.331)" fill="#0b032d"/>
    <path id="Path_418" data-name="Path 418" d="M144.2,472.235s3.366-4.959,7.623-1.6c0,0-3.606,4.262-7.623,2.541Z" transform="translate(-136.059 -407.103)" fill="#0b032d"/>
    <path id="Path_419" data-name="Path 419" d="M149.52,434.462s3.565-4.918,7.7-1.148c0,0-4.221,4.262-7.7,2.049Z" transform="translate(-140.6 -375.026)" fill="#0b032d"/>
    <path id="Path_420" data-name="Path 420" d="M156.564,395.914s4.221-4.622,7.9-2.781c0,0-4.4,4.909-8.088,4.008Z" transform="translate(-146.456 -341.57)" fill="#0b032d"/>
    <path id="Path_421" data-name="Path 421" d="M165.705,357.436s4.871-5.661,7.7-3.77c0,0-3.589,4.391-8.05,4.83Z" transform="translate(-154.122 -307.919)" fill="#0b032d"/>
    <path id="Path_422" data-name="Path 422" d="M178.932,322.1s4.264-4.622,7.378-3.475c0,0-3.647,4.795-7.951,4.918Z" transform="translate(-165.219 -278.179)" fill="#0b032d"/>
    <path id="Path_423" data-name="Path 423" d="M194.245,285.842s4.713-4.426,6.762-3.647c0,0-3.4,4.918-6.967,4.631Z" transform="translate(-178.604 -247.161)" fill="#0b032d"/>
    <path id="Path_424" data-name="Path 424" d="M208.32,246.026s4.057-5.288,6.272-4.878c0,0-2.46,4.714-6.272,5.416Z" transform="translate(-190.794 -212.181)" fill="#0b032d"/>
    <path id="Path_425" data-name="Path 425" d="M221.438,206.474s3.586-4.053,5.524-4.044c0,0-2.831,5.416-5.672,5.366Z" transform="translate(-201.866 -179.15)" fill="#0b032d"/>
    <path id="Path_426" data-name="Path 426" d="M228.011,151.162l3.464-8.442s.173,7.632-3.905,10.009Z" transform="translate(-207.226 -128.179)" fill="#0b032d"/>
    <path id="Path_427" data-name="Path 427" d="M240.053,92.324s.574-7.05.2-7.624c0,0,2.477,5.862-.228,10.739Z" transform="translate(-217.863 -78.652)" fill="#0b032d"/>
    <path id="Path_428" data-name="Path 428" d="M125.008,635.193s-3.592-2.226-5.918,3.22c0,0,3.2,2.122,6.341-1.831Z" transform="translate(-114.624 -548.186)" fill="#0b032d"/>
    <path id="Path_429" data-name="Path 429" d="M110.573,594.3s-4.406-2.01-6.543,3.677c0,0,3.4,2.342,6.944-2.239Z" transform="translate(-101.769 -513.369)" fill="#0b032d"/>
    <path id="Path_430" data-name="Path 430" d="M98.1,551.966s-3.156-3.69-7.9,0c0,0,2.992,3.238,7.9.943Z" transform="translate(-89.963 -476.125)" fill="#0b032d"/>
    <path id="Path_431" data-name="Path 431" d="M96.326,511.341s-3.2-3.852-7.746-.2c0,0,3.606,3.4,7.746,1.106Z" transform="translate(-88.58 -441.331)" fill="#0b032d"/>
    <path id="Path_432" data-name="Path 432" d="M102.7,467.386s-2.242-5.555-7.116-3.166c0,0,2.635,4.925,6.917,4.088Z" transform="translate(-94.555 -402.113)" fill="#0b032d"/>
    <path id="Path_433" data-name="Path 433" d="M109.622,427.539s-2.229-5.651-7.172-3.031c0,0,3.027,5.18,6.952,3.9Z" transform="translate(-100.42 -368.131)" fill="#0b032d"/>
    <path id="Path_434" data-name="Path 434" d="M131.866,375.48s-.878-6.2-4.976-6.75c0,0,.869,6.534,4.425,7.867Z" transform="translate(-121.283 -321.109)" fill="#0b032d"/>
    <path id="Path_435" data-name="Path 435" d="M146.671,336.705s-.342-7.465-3.731-7.725c0,0,.114,5.666,3.349,8.782Z" transform="translate(-134.984 -287.177)" fill="#0b032d"/>
    <path id="Path_436" data-name="Path 436" d="M159.915,301.376s-1.01-6.207-4.245-6.966c0,0,.4,6.011,3.924,8.489Z" transform="translate(-145.85 -257.667)" fill="#0b032d"/>
    <path id="Path_437" data-name="Path 437" d="M184.7,264.746s-.034-6.466-2.01-7.416c0,0-1.225,5.855,1.437,8.242Z" transform="translate(-168.674 -226.014)" fill="#0b032d"/>
    <path id="Path_438" data-name="Path 438" d="M195.331,229.806s-.277-6.658-2.323-7.6c0,0-.7,5.269,2.017,8.033Z" transform="translate(-177.655 -196.035)" fill="#0b032d"/>
    <path id="Path_439" data-name="Path 439" d="M212.88,194.7s-.012-5.416-1.472-6.686c0,0-1.452,5.932.71,7.775Z" transform="translate(-193.022 -166.84)" fill="#0b032d"/>
    <path id="Path_440" data-name="Path 440" d="M217.954,146.013,216.533,137s-1.931,7.386,1.489,10.641Z" transform="translate(-197.341 -123.297)" fill="#0b032d"/>
    <path id="Path_441" data-name="Path 441" d="M210.456,98.1s-3.647-6.06-3.573-6.733c0,0,.388,6.351,4.976,9.514Z" transform="translate(-189.567 -84.345)" fill="#0b032d"/>
    <path id="Path_442" data-name="Path 442" d="M205.06,70.883s-3.443-8.606-5-9.3a10.909,10.909,0,0,1,5.287,9.057Z" transform="translate(-183.743 -58.916)" fill="#0b032d"/>
    <path id="Path_443" data-name="Path 443" d="M219.8,138.66l-.236-.072c2.905-9.474,3.63-15.515,2.042-17.03l.168-.179C223.455,122.978,222.771,128.953,219.8,138.66Z" transform="translate(-200.389 -109.963)" fill="#444053"/>
    <path id="Path_444" data-name="Path 444" d="M164.478,257.586l-.348-.124c.309-.868.641-1.749.989-2.617,3.033-7.558,5.615-14.59,7.27-19.988l.3-.146c-1.658,5.408-4.195,12.709-7.231,20.278C165.115,255.84,164.784,256.716,164.478,257.586Z" transform="translate(-153.072 -206.705)" fill="#444053"/>
    <path id="Path_445" data-name="Path 445" d="M151.079,438.35a47.877,47.877,0,0,1-8.038-14.407,53.3,53.3,0,0,1-3.172-16.507,62.294,62.294,0,0,1,3.785-22.056l.275.322c-5.685,16.037-3.426,29.78-.43,38.055a47.431,47.431,0,0,0,7.949,14.268Z" transform="translate(-132.342 -335.322)" fill="#444053"/>
    <path id="Path_446" data-name="Path 446" d="M539.159,670.36s-3.318,4.05-.684,10.172l-26.492,11.49-2.542.533-1.171-5.123.783-6.465v-3.533Z" transform="translate(-446.841 -578.59)" fill="#d5d6db"/>
    <path id="Path_447" data-name="Path 447" d="M59.16,570.075l36.668-6.685,48.586,7.74-30.178,10.865Z" transform="translate(-50.501 -480.922)" fill="#0b032d"/>
    <path id="Path_448" data-name="Path 448" d="M59.16,570.075l36.668-6.685,48.586,7.74-30.178,10.865Z" transform="translate(-50.501 -480.922)" fill="#0b032d"/>
    <path id="Path_449" data-name="Path 449" d="M139.689,652.47s-3.429,6.5.523,12.5l54.375,11.783s-3.375-5.176.174-12.359Z" transform="translate(-131.03 -563.319)" fill="#0b032d"/>
    <path id="Path_450" data-name="Path 450" d="M139.689,652.47s-3.429,6.5.523,12.5l54.375,11.783s-3.375-5.176.174-12.359Z" transform="translate(-131.03 -563.319)" opacity="0.1"/>
    <path id="Path_451" data-name="Path 451" d="M153.73,667.86s-1.96,4.754,0,7.831" transform="translate(-143.451 -576.456)" opacity="0.1"/>
    <path id="Path_452" data-name="Path 452" d="M205.685,742.813l30.356-12.953s1.7.366.6,1.61-30.371,12.588-30.371,12.588L151.31,731.031Z" transform="translate(-142.128 -629.381)" fill="#0b032d"/>
    <path id="Path_453" data-name="Path 453" d="M205.685,742.813l30.356-12.953s1.7.366.6,1.61-30.371,12.588-30.371,12.588L151.31,731.031Z" transform="translate(-142.128 -629.381)" opacity="0.1"/>
    <path id="Path_454" data-name="Path 454" d="M498.222,742.86s-2.927,3.513,0,8.782" transform="translate(-437.153 -640.479)" opacity="0.1"/>
    <rect id="Rectangle_378" data-name="Rectangle 378" width="13.842" height="0.146" transform="translate(62.111 106.702) rotate(-18.45)" opacity="0.1"/>
    <rect id="Rectangle_379" data-name="Rectangle 379" width="16.866" height="0.146" transform="translate(62.106 107.881) rotate(-20.82)" opacity="0.1"/>
    <rect id="Rectangle_380" data-name="Rectangle 380" width="19.549" height="0.146" transform="translate(62.194 109.27) rotate(-22.26)" opacity="0.1"/>
    <rect id="Rectangle_381" data-name="Rectangle 381" width="22.502" height="0.146" transform="translate(62.405 110.495) rotate(-24.31)" opacity="0.1"/>
    <rect id="Rectangle_382" data-name="Rectangle 382" width="24.612" height="0.146" transform="matrix(0.916, -0.401, 0.401, 0.916, 62.568, 111.091)" opacity="0.1"/>
    <rect id="Rectangle_383" data-name="Rectangle 383" width="29.452" height="0.146" transform="translate(62.908 112.092) rotate(-23.36)" opacity="0.1"/>
    <path id="Path_455" data-name="Path 455" d="M152.23,582.356l25.761-5.416,15.693,3-21.109,6.806Z" transform="translate(-129.949 -492.489)" fill="#fff" opacity="0.3"/>
    <path id="Path_456" data-name="Path 456" d="M554.182,659.69s1.332.537.55,1.367-30.733,9.5-30.733,9.5Z" transform="translate(-460.269 -569.482)" fill="#0b032d"/>
    <path id="Path_457" data-name="Path 457" d="M638.458,574.18s-3.317,4.049-.682,10.172l-26.492,11.49-2.542.536-1.171-5.123.795-6.464v-3.538Z" transform="translate(-531.607 -496.488)" fill="#d5d6db"/>
    <path id="Path_458" data-name="Path 458" d="M158.46,473.893l36.666-6.683,48.588,7.74-30.178,10.865Z" transform="translate(-135.267 -398.82)" fill="#3a3768"/>
    <path id="Path_459" data-name="Path 459" d="M238.943,556.29s-3.431,6.5.521,12.5l54.375,11.783s-3.374-5.18.18-12.361Z" transform="translate(-215.756 -481.216)" fill="#3a3768"/>
    <path id="Path_460" data-name="Path 460" d="M238.943,556.29s-3.431,6.5.521,12.5l54.375,11.783s-3.374-5.18.18-12.361l-17.2-3.722Z" transform="translate(-215.756 -481.216)" opacity="0.1"/>
    <path id="Path_461" data-name="Path 461" d="M253.024,571.68s-1.958,4.753,0,7.831" transform="translate(-228.212 -494.354)" opacity="0.1"/>
    <path id="Path_462" data-name="Path 462" d="M304.975,646.634l30.358-12.953s1.7.366.6,1.61-30.371,12.588-30.371,12.588L250.6,634.851Z" transform="translate(-226.886 -547.279)" fill="#3a3768"/>
    <path id="Path_463" data-name="Path 463" d="M304.975,646.634l30.358-12.953s1.7.366.6,1.61-30.371,12.588-30.371,12.588L250.6,634.851Z" transform="translate(-226.886 -547.279)" opacity="0.1"/>
    <path id="Path_464" data-name="Path 464" d="M597.512,646.68s-2.927,3.513,0,8.782" transform="translate(-521.911 -558.376)" opacity="0.1"/>
    <rect id="Rectangle_384" data-name="Rectangle 384" width="13.842" height="0.146" transform="translate(76.645 92.626) rotate(-18.45)" opacity="0.1"/>
    <rect id="Rectangle_385" data-name="Rectangle 385" width="16.866" height="0.146" transform="translate(76.642 93.804) rotate(-20.82)" opacity="0.1"/>
    <rect id="Rectangle_386" data-name="Rectangle 386" width="19.549" height="0.146" transform="translate(76.728 95.191) rotate(-22.26)" opacity="0.1"/>
    <rect id="Rectangle_387" data-name="Rectangle 387" width="22.502" height="0.146" transform="translate(76.94 96.416) rotate(-24.31)" opacity="0.1"/>
    <rect id="Rectangle_388" data-name="Rectangle 388" width="24.612" height="0.146" transform="matrix(0.916, -0.401, 0.401, 0.916, 77.101, 97.01)" opacity="0.1"/>
    <rect id="Rectangle_389" data-name="Rectangle 389" width="29.452" height="0.146" transform="translate(77.442 98.011) rotate(-23.36)" opacity="0.1"/>
    <path id="Path_465" data-name="Path 465" d="M251.53,486.176l25.761-5.416,15.693,3-21.109,6.806Z" transform="translate(-214.714 -410.386)" fill="#fff" opacity="0.45"/>
    <path id="Path_466" data-name="Path 466" d="M653.508,563.51s1.331.537.55,1.366-30.728,9.5-30.728,9.5Z" transform="translate(-545.06 -487.38)" fill="#3a3768"/>
    <path id="Path_467" data-name="Path 467" d="M647.883,464.15s-3.318,7.27-.684,13.393l-26.492,8.27-2.537.537L617,481.227l.783-6.465v-3.538Z" transform="translate(-539.657 -402.563)" fill="#d5d6db"/>
    <path id="Path_468" data-name="Path 468" d="M167.89,363.865l36.668-6.685,48.588,7.74-30.179,10.865Z" transform="translate(-143.316 -304.894)" fill="#0b032d"/>
    <path id="Path_469" data-name="Path 469" d="M248.4,446.26s-3.435,6.5.517,12.5l54.375,11.783s-3.375-5.18.179-12.359Z" transform="translate(-223.822 -387.291)" fill="#0b032d"/>
    <path id="Path_470" data-name="Path 470" d="M248.4,446.26s-3.435,6.5.517,12.5l54.375,11.783s-3.375-5.18.179-12.359Z" transform="translate(-223.822 -387.291)" opacity="0.1"/>
    <path id="Path_471" data-name="Path 471" d="M262.46,461.65s-1.96,4.754,0,7.831" transform="translate(-236.266 -400.429)" opacity="0.1"/>
    <path id="Path_472" data-name="Path 472" d="M314.415,543.433l30.357-9.733s1.7.366.6,1.61S315,544.677,315,544.677L260.04,531.65Z" transform="translate(-234.944 -460.183)" fill="#0b032d"/>
    <path id="Path_473" data-name="Path 473" d="M314.415,543.433l30.357-9.733s1.7.366.6,1.61S315,544.677,315,544.677L260.04,531.65Z" transform="translate(-234.944 -460.183)" opacity="0.1"/>
    <path id="Path_474" data-name="Path 474" d="M606.952,536.65s-2.927,3.513,0,8.782" transform="translate(-529.969 -464.451)" opacity="0.1"/>
    <rect id="Rectangle_390" data-name="Rectangle 390" width="13.842" height="0.146" transform="translate(78.027 76.521) rotate(-18.45)" opacity="0.1"/>
    <rect id="Rectangle_391" data-name="Rectangle 391" width="16.866" height="0.146" transform="translate(78.023 77.7) rotate(-20.82)" opacity="0.1"/>
    <rect id="Rectangle_392" data-name="Rectangle 392" width="19.549" height="0.146" transform="translate(78.107 79.088) rotate(-22.26)" opacity="0.1"/>
    <rect id="Rectangle_393" data-name="Rectangle 393" width="22.502" height="0.146" transform="translate(78.322 80.311) rotate(-24.31)" opacity="0.1"/>
    <rect id="Rectangle_394" data-name="Rectangle 394" width="24.612" height="0.146" transform="matrix(0.916, -0.401, 0.401, 0.916, 78.483, 80.907)" opacity="0.1"/>
    <rect id="Rectangle_395" data-name="Rectangle 395" width="29.452" height="0.146" transform="translate(78.824 81.909) rotate(-23.36)" opacity="0.1"/>
    <path id="Path_475" data-name="Path 475" d="M260.96,376.146l25.761-5.416,15.693,3-21.109,6.806Z" transform="translate(-222.764 -316.461)" fill="#fff" opacity="0.3"/>
    <path id="Path_476" data-name="Path 476" d="M662.938,453.48s1.332.537.55,1.367-30.728,9.5-30.728,9.5Z" transform="translate(-553.11 -393.454)" fill="#0b032d"/>
    <path id="Path_477" data-name="Path 477" d="M370.044,149.878s-5.562-.335-4.912,3.567a.952.952,0,0,0,.495,1s.01-.293.571-.192a2.5,2.5,0,0,0,.606.029,1.262,1.262,0,0,0,.739-.3h0a4.42,4.42,0,0,0,2.174-3.205s.451-.558.439-.7l-.943.4a1.689,1.689,0,0,1,.069,1.241s-.031-1.216-.212-1.189c-.037,0-.487.236-.487.236a2.778,2.778,0,0,1,.135,2.039s.158-1.455-.307-1.954l-.662.386a2.92,2.92,0,0,1,.208,2.215,4.15,4.15,0,0,0-.347-2.121l-.6.468a2.852,2.852,0,0,1,.237,2.027s-.048-1.777-.366-1.912a3.617,3.617,0,0,0-.6.653s.416.878.157,1.333c0,0-.157-1.184-.293-1.19a3.94,3.94,0,0,0-.577,1.317,2.848,2.848,0,0,1,.449-1.4,1.568,1.568,0,0,0-.8.414s.081-.555.929-.6a3.6,3.6,0,0,1,.547-.631,3.426,3.426,0,0,0-1.355.155,1.536,1.536,0,0,1,1.509-.293l.585-.483a5.05,5.05,0,0,0-1.581.016,1.926,1.926,0,0,1,1.74-.126l.645-.385a5.865,5.865,0,0,0-1.511-.13,2.319,2.319,0,0,1,1.7.026l.46-.206s-.692-.136-.9-.158-.214-.078-.214-.078a2.416,2.416,0,0,1,1.3.146A5.811,5.811,0,0,0,370.044,149.878Z" transform="translate(-324.609 -134.283)" fill="#0b032d"/>
    <path id="Path_478" data-name="Path 478" d="M904.644,259.458s-5.562-.335-4.912,3.567a.952.952,0,0,0,.495,1s.01-.293.571-.192a2.581,2.581,0,0,0,.606.029,1.257,1.257,0,0,0,.732-.3h0a4.416,4.416,0,0,0,2.174-3.205s.451-.558.439-.7l-.94.4a1.688,1.688,0,0,1,.069,1.241s-.031-1.216-.211-1.188c-.037,0-.489.236-.489.236a2.783,2.783,0,0,1,.136,2.039s.158-1.455-.309-1.954l-.662.386a2.92,2.92,0,0,1,.208,2.215,4.15,4.15,0,0,0-.347-2.121l-.6.468a2.855,2.855,0,0,1,.236,2.027s-.048-1.777-.366-1.912a3.671,3.671,0,0,0-.6.653s.416.878.158,1.333c0,0-.158-1.184-.293-1.19a3.94,3.94,0,0,0-.577,1.317,2.84,2.84,0,0,1,.451-1.4,1.575,1.575,0,0,0-.8.414s.082-.555.929-.6a3.655,3.655,0,0,1,.547-.632,3.44,3.44,0,0,0-1.355.157,1.535,1.535,0,0,1,1.509-.293l.585-.483a5.051,5.051,0,0,0-1.581.016,1.924,1.924,0,0,1,1.74-.126l.644-.385a5.865,5.865,0,0,0-1.51-.13,2.318,2.318,0,0,1,1.7.026l.461-.206s-.694-.136-.9-.158-.214-.078-.214-.078a2.4,2.4,0,0,1,1.3.146A5.905,5.905,0,0,0,904.644,259.458Z" transform="translate(-780.961 -227.825)" fill="#0b032d" opacity="0.1"/>
    <path id="Path_479" data-name="Path 479" d="M427.166,295.757s-2.424-5.025-5.509-2.548a.951.951,0,0,0-.634.921s.256-.133.439.405a2.6,2.6,0,0,0,.269.542,1.263,1.263,0,0,0,.628.5h0a4.416,4.416,0,0,0,3.858.334,2.5,2.5,0,0,0,.823.037l-.808-.625a1.7,1.7,0,0,1-1.051.665s1.048-.619.935-.763c-.023-.029-.439-.312-.439-.312a2.779,2.779,0,0,1-1.714,1.112s1.347-.571,1.554-1.222l-.659-.389a2.921,2.921,0,0,1-1.832,1.262s1.388-.646,1.682-1.336l-.7-.293s-.754,1.115-1.655,1.2c0,0,1.528-.909,1.49-1.253a3.71,3.71,0,0,0-.865-.209s-.559.789-1.086.789c0,0,.956-.716.9-.831a3.862,3.862,0,0,0-1.434.146,2.85,2.85,0,0,1,1.439-.293,1.576,1.576,0,0,0-.752-.5s.524-.2.979.517a3.611,3.611,0,0,1,.818.17,3.437,3.437,0,0,0-.8-1.105s.676.136.985,1.171l.71.281a4.881,4.881,0,0,0-.785-1.371s.667.247.959,1.464l.65.375a5.792,5.792,0,0,0-.622-1.382,2.32,2.32,0,0,1,.8,1.5l.405.3s-.22-.672-.293-.859-.037-.225-.037-.225a2.4,2.4,0,0,1,.509,1.208A5.463,5.463,0,0,0,427.166,295.757Z" transform="translate(-372.364 -256.056)" fill="#0b032d" opacity="0.1"/>
    <path id="Path_480" data-name="Path 480" d="M810.947,192.137s-2.422-5.025-5.509-2.548a.953.953,0,0,0-.634.921s.258-.132.439.405a2.537,2.537,0,0,0,.271.543,1.256,1.256,0,0,0,.626.5h0a4.421,4.421,0,0,0,3.858.335,2.515,2.515,0,0,0,.824.035l-.8-.626a1.7,1.7,0,0,1-1.049.666s1.047-.621.934-.764c-.023-.029-.439-.312-.439-.312a2.774,2.774,0,0,1-1.714,1.112s1.348-.571,1.556-1.221l-.669-.386a2.921,2.921,0,0,1-1.833,1.262s1.388-.647,1.683-1.338l-.7-.293s-.754,1.117-1.654,1.2c0,0,1.527-.909,1.489-1.251a3.62,3.62,0,0,0-.864-.209s-.559.787-1.087.787c0,0,.957-.716.9-.831a3.871,3.871,0,0,0-1.436.146,2.848,2.848,0,0,1,1.439-.293,1.567,1.567,0,0,0-.751-.5s.524-.2.979.517a3.624,3.624,0,0,1,.818.171,3.425,3.425,0,0,0-.8-1.107s.676.138.985,1.178l.711.281a4.882,4.882,0,0,0-.784-1.373s.667.247.957,1.464l.651.375a5.847,5.847,0,0,0-.624-1.382,2.312,2.312,0,0,1,.8,1.5l.405.3s-.218-.672-.293-.859-.037-.224-.037-.224a2.408,2.408,0,0,1,.508,1.208A5.622,5.622,0,0,0,810.947,192.137Z" transform="translate(-699.972 -167.603)" fill="#0b032d" opacity="0.1"/>
    <path id="Path_481" data-name="Path 481" d="M863.811,361.94s-2.422-5.026-5.514-2.55a.952.952,0,0,0-.634.921s.258-.132.439.405a2.538,2.538,0,0,0,.269.543,1.256,1.256,0,0,0,.626.5h0a4.418,4.418,0,0,0,3.86.335s.706.121.823.035l-.808-.625a1.7,1.7,0,0,1-1.051.666s1.047-.621.934-.764c-.023-.029-.439-.312-.439-.312A2.78,2.78,0,0,1,860.6,362.2s1.348-.572,1.556-1.222l-.66-.389a2.916,2.916,0,0,1-1.832,1.262s1.388-.647,1.683-1.338l-.7-.293s-.754,1.115-1.654,1.2c0,0,1.528-.909,1.49-1.253a3.637,3.637,0,0,0-.865-.209s-.559.787-1.088.787c0,0,.957-.716.9-.831a3.871,3.871,0,0,0-1.436.146,2.857,2.857,0,0,1,1.44-.293,1.565,1.565,0,0,0-.752-.5s.524-.2.979.517a3.611,3.611,0,0,1,.818.17,3.452,3.452,0,0,0-.8-1.107s.676.138.985,1.178l.71.281a4.861,4.861,0,0,0-.785-1.371s.667.246.957,1.464l.651.373a5.846,5.846,0,0,0-.623-1.382,2.318,2.318,0,0,1,.807,1.5l.405.293s-.22-.672-.293-.859-.037-.224-.037-.224a2.393,2.393,0,0,1,.508,1.208A5.926,5.926,0,0,0,863.811,361.94Z" transform="translate(-745.095 -312.55)" fill="#0b032d" opacity="0.1"/>
    <ellipse id="Ellipse_1" data-name="Ellipse 1" cx="3.365" cy="0.376" rx="3.365" ry="0.376" transform="translate(26.194 114.029)" fill="#0b032d" opacity="0.1"/>
    <ellipse id="Ellipse_2" data-name="Ellipse 2" cx="3.365" cy="0.376" rx="3.365" ry="0.376" transform="translate(4.135 107.636)" fill="#0b032d" opacity="0.1"/>
    <ellipse id="Ellipse_3" data-name="Ellipse 3" cx="3.365" cy="0.376" rx="3.365" ry="0.376" transform="translate(43.008 118.275)" fill="#0b032d" opacity="0.1"/>
    <ellipse id="Ellipse_4" data-name="Ellipse 4" cx="3.365" cy="0.376" rx="3.365" ry="0.376" transform="translate(129.175 109.026)" fill="#0b032d" opacity="0.1"/>
    <ellipse id="Ellipse_5" data-name="Ellipse 5" cx="3.365" cy="0.376" rx="3.365" ry="0.376" transform="translate(101.173 107.201)" fill="#0b032d" opacity="0.1"/>
    <ellipse id="Ellipse_6" data-name="Ellipse 6" cx="3.98" cy="0.684" rx="3.98" ry="0.684" transform="translate(82.444 115.488)" fill="#0b032d" opacity="0.1"/>
    <path id="Path_482" data-name="Path 482" d="M670.759,790.14s-5.541,2.863-2.678,6.235a1.071,1.071,0,0,0,1.048.681s-.155-.284.439-.511a2.854,2.854,0,0,0,.6-.318,1.406,1.406,0,0,0,.536-.716h0s1.133-1.516.255-4.322a2.782,2.782,0,0,0,.015-.922l-.673.924a1.885,1.885,0,0,1,.776,1.153s-.732-1.152-.878-1.025c-.032.026-.334.5-.334.5a3.1,3.1,0,0,1,1.3,1.881s-.679-1.489-1.412-1.7l-.42.749a3.255,3.255,0,0,1,1.464,2.008s-.766-1.53-1.547-1.838l-.309.792s1.27.808,1.388,1.812c0,0-1.063-1.679-1.445-1.626a4.058,4.058,0,0,0-.208.973s.9.6.913,1.19c0,0-.828-1.047-.956-.978a4.412,4.412,0,0,0,.2,1.6,3.158,3.158,0,0,1-.367-1.6,1.756,1.756,0,0,0-.531.855s-.239-.578.547-1.111a4.051,4.051,0,0,1,.165-.919,3.857,3.857,0,0,0-1.212.925s.133-.76,1.287-1.137l.293-.8a5.454,5.454,0,0,0-1.509.919s.256-.754,1.6-1.115l.4-.732a6.723,6.723,0,0,0-1.525.732,2.592,2.592,0,0,1,1.648-.947l.323-.461s-.744.265-.951.36-.249.048-.249.048a2.693,2.693,0,0,1,1.333-.606A6.515,6.515,0,0,0,670.759,790.14Z" transform="translate(-582.56 -680.839)" fill="#0b032d"/>
    <path id="Path_483" data-name="Path 483" d="M514.011,98.649c-.957-2.6-6.226-2.845-8.513-2.182a68.348,68.348,0,0,1-6.879,1.273l-.119-.113c.237-.07.243-.243.214-.5a7.818,7.818,0,0,1,.015-1.013,2.494,2.494,0,0,0,2.119-.476h0c1.317-.585.963-3.091,1.215-3.776a43.443,43.443,0,0,0,.483-5.035h.019l.01-.5c.013-.218.019-.345.019-.345a34.607,34.607,0,0,1,.381-4.425,38.729,38.729,0,0,0,.454-4.684V76.8l-.019-.319c.013-.233.019-.492.018-.764,0-1.251-.13-2.828-.146-3.082V72.5c.01-.534-.057-3.21-2.333-4.221-.839-.375-1.847-.821-2.823-1.256a47.832,47.832,0,0,1-.777-6.525c0-.329.029-.659.061-.987,0,.1-.01.192-.012.293v.638c.086-2.739,1.121-5.492,1.025-8.172-.009.262-.028.525-.053.789a8.506,8.506,0,0,0-.281-2.692,1.593,1.593,0,0,0-.46-.834,1.893,1.893,0,0,0-.8-.318,16.131,16.131,0,0,0-2.106-.392,3.254,3.254,0,0,0-.474-.921,10.413,10.413,0,0,0-6.282-4.391,4.175,4.175,0,0,0-3.691.9,2.768,2.768,0,0,0-.261.263c-.477.569-.682,1.317-1.171,1.885-.032.038-.069.073-.1.11-.957.856-2.449,1.035-3.513,1.8a4.214,4.214,0,0,0-.525.458,8.908,8.908,0,0,0-1.148,1.395,5.786,5.786,0,0,0-1.123,2.178c-.306,1.61.79,3.137.994,4.757.454,3.626-3.558,6.843-2.8,10.42a4.772,4.772,0,0,0,1.291,2.317c-1.565,1.417-2.9,2.791-2.9,2.791v.082h-.247l.025.293h-.025l.136,1.588-.136,2.313v.218h.009a36.984,36.984,0,0,0,.439,4.537,34.57,34.57,0,0,1,.379,4.425s.278,5.2.533,5.888-.107,3.186,1.215,3.776h0a2.781,2.781,0,0,0,1.328.55c-.067.547-.025.944.193,1.068a.638.638,0,0,0,.307.088,3.259,3.259,0,0,0-.239.417,6.2,6.2,0,0,1-1.534-.362c-1.42-.585-6.131-1.9-7.5-.976s-4.662,1.767-3.141,5.5,2.229,3.823,2.229,3.823a5.417,5.417,0,0,1,1.216,1.222c.457.686,4.712,2.257,5.776,2.257a10.419,10.419,0,0,1,1.354.067s-1.155,1.013-1,1.6a48.6,48.6,0,0,1-.351,5.3s1.171,1.18,1.672-.367l.018.023c.094.127.6.7,1.553-.023a8.7,8.7,0,0,1,1.238-.785l4.613-.653a13.051,13.051,0,0,1,1.445-.01,3.019,3.019,0,0,0,1.9-.708c.956.363,2.03.76,2.541.9,1.036.293,5.8,1.571,6.913,1.171a1.547,1.547,0,0,0,.6-.427l1.063.034-.5.1s.969.016,2.286.034l-.056.032,1.653-.015c2.418.022,5.134.029,5.492-.051a38.58,38.58,0,0,1,4.321,0h.239a2.622,2.622,0,0,0,1.875-3.876c-1.013-2.488-4.126-3.211-5.508-3.41.389-.078.725-.138.947-.173a7.5,7.5,0,0,0,2.99-1.325c.152-.3,1.723-1.171,2.128-1.667A9.324,9.324,0,0,0,514.011,98.649Zm-26.441,7.279-.157.051-.105.035-.2.2c-.161-.108-.334-.222-.514-.34C486.91,105.893,487.236,105.912,487.57,105.928Zm13.95,4.125Z" transform="translate(-409.365 -43.42)" fill="url(#linear-gradient)"/>
    <path id="Path_484" data-name="Path 484" d="M686.65,259.721s2.239,5.855,3.513,5.269.928-3.074,1.171-3.756.512-5.855.512-5.855a35.382,35.382,0,0,1,.366-4.4,40.316,40.316,0,0,0,.439-4.653v-.072l-.242-4.245-1.367-.341-3.17,1.171-.439,2.507-.171.979-.073.417Z" transform="translate(-599.112 -212.646)" fill="#be6f72"/>
    <path id="Path_485" data-name="Path 485" d="M691.69,358.3a15.725,15.725,0,0,0,2.781,1.9c.644.154,1.039,1.518,1.039,1.518" transform="translate(-603.415 -312.206)" opacity="0.1"/>
    <path id="Path_486" data-name="Path 486" d="M532,261.471s-2.239,5.855-3.513,5.269-.928-3.074-1.171-3.756-.512-5.855-.512-5.855a35.382,35.382,0,0,0-.366-4.4,40.315,40.315,0,0,1-.439-4.653v-.072l.243-4.245,1.367-.341,3.17,1.171.439,2.507.171.979.073.417Z" transform="translate(-461.976 -214.14)" fill="#be6f72"/>
    <rect id="Rectangle_396" data-name="Rectangle 396" width="4.998" height="7.791" transform="translate(79.609 16)" fill="#3e373a"/>
    <rect id="Rectangle_397" data-name="Rectangle 397" width="4.998" height="7.791" transform="translate(79.609 16)" opacity="0.1"/>
    <path id="Path_487" data-name="Path 487" d="M553.912,403.874s-1.708,1.878-1.074,2.219,4.734,6.733,4.734,6.733,13.466,1.658,16.005-.83,2.488-6.933,2.488-6.933-2.04.439-2.263.2-1.445-1.389-1.445-1.389S555.083,402.826,553.912,403.874Z" transform="translate(-484.765 -350.711)" fill="#4b4b5b"/>
    <path id="Path_488" data-name="Path 488" d="M553.912,403.874s-1.708,1.878-1.074,2.219,4.734,6.733,4.734,6.733,13.466,1.658,16.005-.83,2.488-6.933,2.488-6.933-2.04.439-2.263.2-1.445-1.389-1.445-1.389S555.083,402.826,553.912,403.874Z" transform="translate(-484.765 -350.711)" opacity="0.02"/>
    <path id="Path_489" data-name="Path 489" d="M556.781,165.853l-4.391,3.513-1.328.1-.487.035-8.186.6-8.489-.621-1.263-.092-1.61-.117-3.366-3.22a57.656,57.656,0,0,1,4.47-4.275,9.17,9.17,0,0,1,2.166-1.448l.1-.034a2.409,2.409,0,0,0,.928-.647c1.648-1.7,3.172-5.893,3.172-5.893s7.27-3.756,6.392,1.171,3.268,3.709,3.268,3.709l1.367.624.54.247,1.377.631,3.107,1.426C556.983,162.681,556.781,165.853,556.781,165.853Z" transform="translate(-463.393 -136.427)" fill="#be6f72"/>
    <circle id="Ellipse_7" data-name="Ellipse 7" cx="6.538" cy="6.538" r="6.538" transform="translate(72.116 8.26)" opacity="0.1"/>
    <path id="Path_490" data-name="Path 490" d="M555.374,216.588H526v-.072l.243-4.245a57.655,57.655,0,0,1,4.47-4.275l18.442-.732.858-.9,3.107,1.426c2.44,1.121,2.244,4.293,2.244,4.293S555.7,215.754,555.374,216.588Z" transform="translate(-461.976 -182.505)" opacity="0.1"/>
    <path id="Path_491" data-name="Path 491" d="M555.374,215.588H526v-.072l.243-4.245a57.656,57.656,0,0,1,4.47-4.275l18.442-.732.858-.9,3.107,1.426c2.44,1.121,2.244,4.293,2.244,4.293S555.7,214.754,555.374,215.588Z" transform="translate(-461.976 -181.651)" fill="#e7c7ca"/>
    <path id="Path_492" data-name="Path 492" d="M583.12,186.462s4.634,5.9,10.806-.121.684,13.441.684,13.441l-13.319,1.581Z" transform="translate(-509.174 -164.427)" opacity="0.1"/>
    <path id="Path_493" data-name="Path 493" d="M583.12,188.462s4.634,5.9,10.806-.121.684,13.441.684,13.441l-13.319,1.581Z" transform="translate(-509.174 -166.134)" fill="#e7c7ca"/>
    <path id="Path_494" data-name="Path 494" d="M570.436,201.592l.49,7.478.525,2.488.4,1.9s1.025,14.637.732,15.369.146,1.317.208,1.707-.062,1.367-.013,1.806,0,.634-1.121.477-2.684-.429-2.684-.429-3.952.293-5.318-.195a15.6,15.6,0,0,0-3.952-.489s-3.9.1-5.171-.048-1.953,1.562-2.781,1.073.975-5.219,1.56-6.587-.78-4.83-.78-4.83l1.756-9.744.391-2.209v-6.944l.1-.034a2.409,2.409,0,0,0,.928-.647l.439,6.988,13.758.489V201.35" transform="translate(-483.776 -178.228)" opacity="0.1"/>
    <path id="Path_495" data-name="Path 495" d="M570.436,199.592l.49,7.478.525,2.488.4,1.9s1.025,14.637.732,15.369.146,1.317.208,1.707-.062,1.367-.013,1.806,0,.634-1.121.477-2.684-.429-2.684-.429-3.952.293-5.318-.195a15.6,15.6,0,0,0-3.952-.489s-3.9.1-5.171-.048-1.953,1.562-2.781,1.073.975-5.219,1.56-6.587-.78-4.83-.78-4.83l1.756-9.744.391-2.209v-6.944l.1-.034a2.409,2.409,0,0,0,.928-.647l.439,6.988,13.758.489V199.35" transform="translate(-483.776 -176.521)" fill="#e7c7ca"/>
    <path id="Path_496" data-name="Path 496" d="M560.078,54.156a1.613,1.613,0,0,0-.439-.828,1.8,1.8,0,0,0-.773-.316,15.271,15.271,0,0,0-2.032-.389,3.253,3.253,0,0,0-.439-.912c-1.434-2.026-3.557-3.936-6.054-4.368a3.84,3.84,0,0,0-3.659,1.007c-.46.566-.657,1.317-1.121,1.873-.894,1.08-2.509,1.213-3.636,2.049a6.737,6.737,0,0,0-1.464,1.693,5.81,5.81,0,0,0-1.082,2.165c-.293,1.6.763,3.119.957,4.731.439,3.605-3.425,6.8-2.695,10.36.426,2.074,2.342,3.535,4.324,4.275a3,3,0,0,1,1.822,1.193c.146.293.171.631.309.926a1.849,1.849,0,0,0,2.8.306,4.363,4.363,0,0,0,1.171-2.965c.392-4.736-1.5-9.416-1.284-14.164.066-1.436.47-3.065,1.756-3.715,1.732-.878,3.814.585,5.72.306a11.348,11.348,0,0,1,.547,6.925,18.918,18.918,0,0,0-.865,3.791c-.057,1.983,1.013,3.8,1.938,5.549a2.955,2.955,0,0,1,.391,1.07,2.58,2.58,0,0,1-.209,1.12c-.523,1.407-1.424,2.712-1.527,4.21a.681.681,0,0,0,.11.5.63.63,0,0,0,.378.17c1.581.271,2.948-1.13,3.719-2.537a11.89,11.89,0,0,0,1.467-5.053c.16-2.98-.909-5.912-.843-8.895C559.442,60.842,560.975,57.428,560.078,54.156Z" transform="translate(-471.836 -46.691)" opacity="0.1"/>
    <path id="Path_497" data-name="Path 497" d="M561.078,53.156a1.613,1.613,0,0,0-.439-.828,1.8,1.8,0,0,0-.773-.316,15.268,15.268,0,0,0-2.032-.389,3.251,3.251,0,0,0-.439-.912c-1.434-2.026-3.557-3.936-6.054-4.368a3.84,3.84,0,0,0-3.659,1.007c-.46.566-.657,1.317-1.121,1.873-.894,1.08-2.509,1.213-3.636,2.049a6.736,6.736,0,0,0-1.464,1.693,5.808,5.808,0,0,0-1.082,2.165c-.293,1.6.763,3.119.957,4.731.439,3.605-3.425,6.8-2.695,10.36.426,2.074,2.342,3.535,4.324,4.275a3,3,0,0,1,1.822,1.193c.146.293.171.631.309.926a1.849,1.849,0,0,0,2.8.306,4.363,4.363,0,0,0,1.171-2.965c.392-4.736-1.5-9.416-1.284-14.164.066-1.436.47-3.065,1.756-3.715,1.732-.878,3.814.585,5.72.306a11.348,11.348,0,0,1,.547,6.925,18.913,18.913,0,0,0-.865,3.791c-.057,1.983,1.013,3.8,1.938,5.549a2.952,2.952,0,0,1,.391,1.07,2.578,2.578,0,0,1-.209,1.12c-.523,1.407-1.424,2.712-1.527,4.21a.681.681,0,0,0,.11.5.63.63,0,0,0,.378.17c1.581.271,2.948-1.13,3.719-2.537a11.89,11.89,0,0,0,1.467-5.053c.16-2.98-.909-5.912-.843-8.895C560.442,59.842,561.975,56.428,561.078,53.156Z" transform="translate(-472.69 -45.837)" fill="#3e373a"/>
    <path id="Path_498" data-name="Path 498" d="M581.79,468.7l5.806.186-.833-4.306-4.448.423Z" transform="translate(-496.635 -396.574)" fill="#c3c7d9"/>
    <path id="Path_499" data-name="Path 499" d="M635.94,413.507c-.391.487-1.9,1.366-2.049,1.658a7.209,7.209,0,0,1-2.879,1.317,23.969,23.969,0,0,0-4.391,1.123,42.8,42.8,0,0,1-5.5,1.456,15.626,15.626,0,0,1-1.667.3c-.878.048-10.489-3.22-10.489-3.22l1.853-1.9.1-.035c.524-.177,2.945-1,4.289-1.385a9.865,9.865,0,0,0,3.27-2.244s2.585-.878,2.927-.976-.878-3.415-.878-3.415,5.61-.779,7.806-1.439,7.27-.416,8.2,2.171A9.531,9.531,0,0,1,635.94,413.507Z" transform="translate(-532.794 -351.587)" fill="#4b4b5b"/>
    <path id="Path_500" data-name="Path 500" d="M546.351,492.591a3.425,3.425,0,0,1-2.244,1.074c-1.123-.1-5.048.293-5.048.293a7.871,7.871,0,0,0-1.977,1.146c-.918.723-1.405.146-1.5.023l-.016-.023c-.489,1.538-1.61.366-1.61.366a49.522,49.522,0,0,0,.338-5.269c-.149-.585.965-1.591.965-1.591l1.317-.335,3.337-.855,4.782,1.658Z" transform="translate(-468.771 -422.427)" fill="#e7c7ca"/>
    <path id="Path_501" data-name="Path 501" d="M536.574,493.26l-.988,6.853-.016-.023c-.489,1.538-1.61.366-1.61.366a49.522,49.522,0,0,0,.338-5.269c-.149-.586.965-1.591.965-1.591Z" transform="translate(-468.771 -427.412)" opacity="0.1"/>
    <path id="Path_502" data-name="Path 502" d="M599,360.08a7.988,7.988,0,0,0,4.83,0" transform="translate(-524.292 -313.725)" opacity="0.1"/>
    <path id="Path_503" data-name="Path 503" d="M659.29,371.42a2.135,2.135,0,0,0,1.9,0" transform="translate(-575.757 -323.405)" opacity="0.1"/>
    <path id="Path_504" data-name="Path 504" d="M659.29,378.666s1.8.242,2.147-.246" transform="translate(-575.757 -329.381)" opacity="0.1"/>
    <path id="Path_505" data-name="Path 505" d="M655.29,392.775s3.39-.439,4.231-1.025" transform="translate(-572.342 -340.76)" opacity="0.1"/>
    <path id="Path_506" data-name="Path 506" d="M584.62,391.75a8.047,8.047,0,0,0,3.318,1.025" transform="translate(-512.016 -340.76)" opacity="0.1"/>
    <path id="Path_507" data-name="Path 507" d="M621.106,476.038a15.621,15.621,0,0,1-1.667.3c-.878.048-10.489-3.22-10.489-3.22l1.853-1.9.1-.035c.293.206.533.383.7.518.807.635,1.585-.195,1.878-.195a23.692,23.692,0,0,1,2.829,2.1s2.342.537,2.733,1.025,1.756.391,2,.732A1.3,1.3,0,0,1,621.106,476.038Z" transform="translate(-532.785 -408.564)" opacity="0.1"/>
    <path id="Path_508" data-name="Path 508" d="M485.067,407.648a10.61,10.61,0,0,1-3.734-.439c-1.366-.575-5.9-1.9-7.22-.97s-4.489,1.756-3.025,5.465,2.147,3.806,2.147,3.806a5.285,5.285,0,0,1,1.171,1.215c.439.684,4.537,2.244,5.562,2.244a8.505,8.505,0,0,1,5.366,1.756,11.028,11.028,0,0,0,4.83,1.953s3.22,1.317,4.223,1.61,5.584,1.56,6.658,1.171,1.756-2.831,1.756-2.831.487-2.2.243-2.537-1.61-.244-2-.732-2.733-1.025-2.733-1.025a23.593,23.593,0,0,0-2.823-2.1c-.293,0-1.071.828-1.878.195a42.834,42.834,0,0,0-5.051-3.22C486.706,412.233,485.067,407.648,485.067,407.648Z" transform="translate(-414.779 -352.852)" fill="#4b4b5b"/>
    <path id="Path_509" data-name="Path 509" d="M536.27,427.09a2.8,2.8,0,0,1,2.4.634,42.436,42.436,0,0,0,5.111,2.936" transform="translate(-470.743 -370.879)" opacity="0.1"/>
    <path id="Path_510" data-name="Path 510" d="M700.156,427s-5.221.79-6.2,1.863" transform="translate(-605.352 -370.85)" opacity="0.1"/>
    <path id="Path_511" data-name="Path 511" d="M699.037,494.738h-.23a39.349,39.349,0,0,0-4.161,0c-.634.146-9.026,0-9.026,0l1.641-.341s-.609-2.134-.222-2.311c0,0-2.2-1.446-.54-2.422a5.136,5.136,0,0,1,3.44-.565l4.155-1.408.8-.271s4.684.244,5.951,3.464S699.037,494.738,699.037,494.738Z" transform="translate(-598.233 -422.427)" fill="#e7c7ca"/>
    <path id="Path_512" data-name="Path 512" d="M748.454,494.781h-.23c1.363-1.124,4.445-4.546-4.714-7.04l.8-.271s4.684.244,5.951,3.465S748.454,494.781,748.454,494.781Z" transform="translate(-647.65 -422.469)" opacity="0.1"/>
    <circle id="Ellipse_8" data-name="Ellipse 8" cx="0.256" cy="0.256" r="0.256" transform="translate(91.937 68.006)" fill="#4b4b5b"/>
    <circle id="Ellipse_9" data-name="Ellipse 9" cx="0.256" cy="0.256" r="0.256" transform="translate(90.449 68.429)" fill="#4b4b5b"/>
    <g id="Group_1" data-name="Group 1" transform="translate(65.901 9.211)" opacity="0.1">
      <path id="Path_513" data-name="Path 513" d="M610.138,111.956a11.357,11.357,0,0,0-.84-4.7c-1.9.284-3.987-1.184-5.72-.306-1.282.65-1.685,2.279-1.756,3.715-.018.379-.02.758-.013,1.137,0-.135,0-.271.013-.405.067-1.436.47-3.065,1.756-3.715,1.733-.878,3.814.585,5.72.306A11.328,11.328,0,0,1,610.138,111.956Z" transform="translate(-592.586 -106.611)"/>
      <path id="Path_514" data-name="Path 514" d="M552.027,113.4a4.881,4.881,0,0,0-.019-.957c-.155-1.288-.859-2.519-.987-3.775-.164,1.515.8,2.97.987,4.507A.914.914,0,0,1,552.027,113.4Z" transform="translate(-549.22 -108.325)"/>
      <path id="Path_515" data-name="Path 515" d="M549.342,205.635a4.305,4.305,0,0,1-1.171,2.967,1.846,1.846,0,0,1-2.8-.306c-.146-.293-.168-.634-.31-.926-.325-.67-1.124-.931-1.822-1.193-1.983-.742-3.9-2.2-4.322-4.275a4.483,4.483,0,0,1-.078-.571,4.615,4.615,0,0,0,.078,1.3c.426,2.074,2.342,3.533,4.322,4.275.7.262,1.5.523,1.822,1.193.146.293.171.631.31.926a1.848,1.848,0,0,0,2.8.306,4.364,4.364,0,0,0,1.171-2.967,16.728,16.728,0,0,0,.045-1.718C549.387,204.98,549.368,205.308,549.342,205.635Z" transform="translate(-538.823 -187.422)"/>
      <path id="Path_516" data-name="Path 516" d="M687.93,113.8v.634c.082-2.722,1.08-5.459.982-8.125C688.836,108.775,687.986,111.3,687.93,113.8Z" transform="translate(-666.106 -106.31)"/>
      <path id="Path_517" data-name="Path 517" d="M653.08,193.984a1.889,1.889,0,0,0,.034-.528,2.928,2.928,0,0,0-.391-1.07,13.151,13.151,0,0,1-1.925-5.045c0,.076-.01.146-.012.228-.059,1.982,1.011,3.8,1.936,5.549A3.513,3.513,0,0,1,653.08,193.984Z" transform="translate(-634.397 -175.48)"/>
      <path id="Path_518" data-name="Path 518" d="M660.467,216.553a11.911,11.911,0,0,1-1.477,5.053c-.773,1.407-2.138,2.807-3.721,2.537a.622.622,0,0,1-.378-.171.366.366,0,0,1-.069-.114c-.018.114-.032.23-.041.347a.675.675,0,0,0,.11.5.622.622,0,0,0,.378.171c1.582.271,2.948-1.13,3.721-2.537a11.911,11.911,0,0,0,1.477-5.053c.018-.342.019-.684.009-1.025C660.473,216.358,660.473,216.455,660.467,216.553Z" transform="translate(-637.801 -200.167)"/>
    </g>
    <path id="Path_519" data-name="Path 519" d="M695.31,508.305a5.179,5.179,0,0,0,6.147-1.885" transform="translate(-606.505 -438.646)" fill="none" stroke="#000" stroke-miterlimit="10" stroke-width="1" opacity="0.1"/>
    <path id="Path_520" data-name="Path 520" d="M700.29,532.648a7.222,7.222,0,0,1,6.879-.064" transform="translate(-610.756 -460.272)" fill="none" stroke="#000" stroke-miterlimit="10" stroke-width="1" opacity="0.1"/>
    <path id="Path_521" data-name="Path 521" d="M561.93,526.049s1.27-2.866,4.663-.681" transform="translate(-492.647 -454.12)" fill="none" stroke="#000" stroke-miterlimit="10" stroke-width="1" opacity="0.1"/>
    <path id="Path_522" data-name="Path 522" d="M533.79,228.549l2.591-2.342s10.045-.659,10.461,2.756c0,0,3.561-4.048,11.051-3.147l3.169,2.523-8.759,3.844-8.511,2.952-6.269-2.806Z" transform="translate(-468.626 -199.001)" opacity="0.1"/>
    <path id="Path_523" data-name="Path 523" d="M533.79,229.549l2.591-2.342s10.045-.659,10.461,2.756c0,0,3.561-4.049,11.051-3.147l3.169,2.523-8.759,3.844-8.511,2.952-6.269-2.806Z" transform="translate(-468.626 -199.855)" fill="#d5d6db"/>
    <path id="Path_524" data-name="Path 524" d="M437.38,204.83l1.146,13.71,12.148.61-.527-13.652-.01-.23Z" transform="translate(-373.362 -174.843)" opacity="0.1"/>
    <path id="Path_525" data-name="Path 525" d="M437.38,202.83l1.146,13.71,12.148.61-.527-13.652-.01-.23Z" transform="translate(-373.362 -173.136)" fill="#0b032d"/>
    <path id="Path_526" data-name="Path 526" d="M562.242,202.83l-12.532,1.879v13.772l12.247-1.77Z" transform="translate(-469.251 -173.136)" opacity="0.1"/>
    <path id="Path_527" data-name="Path 527" d="M562.242,200.83l-12.532,1.879v13.772l12.247-1.77Z" transform="translate(-469.251 -171.429)" fill="#0b032d"/>
    <path id="Path_528" data-name="Path 528" d="M575.66,223.79l-6.77.752.148,2.307,6.617-.723Z" transform="translate(-485.623 -191.028)" fill="#fff" opacity="0.3"/>
    <path id="Path_529" data-name="Path 529" d="M536.574,318.869l.689,1.854a2.3,2.3,0,0,0,2.146.439A10.963,10.963,0,0,0,542,320.078a9.805,9.805,0,0,0,1.171-2.575,9.12,9.12,0,0,1,1.366-2.927c.682-.585,2.488-8.652,0-7.863s-4.391,8.107-4.391,8.107a1.735,1.735,0,0,1-1.073.585c-.634.05-1.9-.1-2.147.439S535.843,317.8,536.574,318.869Z" transform="translate(-470.752 -268.123)" fill="#be6f72"/>
    <path id="Path_530" data-name="Path 530" d="M616.855,253.736a4.215,4.215,0,0,1-3.675-.916l.528,13.65a3.725,3.725,0,0,0,3.147,1.039Z" transform="translate(-536.396 -222.164)" opacity="0.1"/>
    <path id="Path_531" data-name="Path 531" d="M616.855,251.736a4.215,4.215,0,0,1-3.675-.916l.528,13.65a3.725,3.725,0,0,0,3.147,1.039Z" transform="translate(-536.396 -220.457)" fill="#0b032d"/>
    <path id="Path_532" data-name="Path 532" d="M616.855,251.736a4.215,4.215,0,0,1-3.675-.916l.528,13.65a3.725,3.725,0,0,0,3.147,1.039Z" transform="translate(-536.396 -220.457)" opacity="0.1"/>
    <path id="Path_533" data-name="Path 533" d="M640.29,238.636s5.1-1.559,6.427-1.339" transform="translate(-559.538 -208.895)" opacity="0.1"/>
    <path id="Path_534" data-name="Path 534" d="M567.7,236.682s-4.941-1.171-5.767-.839" transform="translate(-492.647 -207.622)" opacity="0.1"/>
    <path id="Path_535" data-name="Path 535" d="M662.25,243.141s3.409-1.25,4.641-.656" transform="translate(-578.284 -213.206)" opacity="0.1"/>
    <path id="Path_536" data-name="Path 536" d="M650.52,447.174a11.208,11.208,0,0,1,1.68-1.044,27.418,27.418,0,0,0,2.488-1.521" transform="translate(-568.271 -385.883)" opacity="0.1"/>
    <path id="Path_537" data-name="Path 537" d="M539.65,360.08a15.781,15.781,0,0,1-2.781,1.9c-.643.154-1.039,1.518-1.039,1.518" transform="translate(-470.367 -313.725)" opacity="0.1"/>
    <path id="Path_538" data-name="Path 538" d="M661.512,317.115l-.682,1.859a2.305,2.305,0,0,1-2.147.439,10.961,10.961,0,0,1-2.586-1.085,9.756,9.756,0,0,1-1.171-2.575,9.088,9.088,0,0,0-1.366-2.927c-.684-.585-2.488-8.652,0-7.863s4.391,8.107,4.391,8.107a1.735,1.735,0,0,0,1.073.585c.634.05,1.9-.1,2.147.439S662.244,316.047,661.512,317.115Z" transform="translate(-569.778 -266.63)" fill="#be6f72"/>
    <path id="Path_539" data-name="Path 539" d="M707.15,364.94s1.4.9,1.392,1.973" transform="translate(-616.612 -317.874)" opacity="0.1"/>
    <circle id="Ellipse_10" data-name="Ellipse 10" cx="6.538" cy="6.538" r="6.538" transform="translate(72.14 7.94)" fill="#be6f72"/>
    <path id="Path_540" data-name="Path 540" d="M579.188,90.1a13.4,13.4,0,0,0,2.247-.85,8.508,8.508,0,0,1,5.29.35,6.86,6.86,0,0,0,2.018.439,2.043,2.043,0,0,0,1.777-.878,1.986,1.986,0,0,0-.012-1.834,5.166,5.166,0,0,0-1.194-1.474c-1.522-1.437-3.41-2.781-5.5-2.635a7.568,7.568,0,0,0-2.417.692,26.646,26.646,0,0,0-2.837,1.429c-.7.408-2.008.954-2.414,1.7C575.226,88.72,577.754,90.324,579.188,90.1Z" transform="translate(-504.616 -77.375)" fill="#3e373a"/>
    <path id="Path_541" data-name="Path 541" d="M590.517,112.919a2.043,2.043,0,0,1-1.777.878,6.865,6.865,0,0,1-2.02-.43,8.5,8.5,0,0,0-5.29-.35,12.741,12.741,0,0,1-2.247.849c-1.156.181-3.018-.826-3.22-2.106-.227,1.48,1.932,2.747,3.22,2.545a13.469,13.469,0,0,0,2.247-.849,8.5,8.5,0,0,1,5.29.35,6.587,6.587,0,0,0,2.02.43,2.058,2.058,0,0,0,1.777-.878,1.715,1.715,0,0,0,.2-1.07,1.579,1.579,0,0,1-.2.631Z" transform="translate(-504.613 -101.751)" opacity="0.1"/>
    <path id="Path_542" data-name="Path 542" d="M1024.07,661.63s.868,1.134-.4,2.848-2.314,3.16-1.893,4.229c0,0,1.914-3.182,3.472-3.227S1025.781,663.543,1024.07,661.63Z" transform="translate(-885.106 -571.138)" fill="#0b032d"/>
    <path id="Path_543" data-name="Path 543" d="M1024.359,661.63a1.405,1.405,0,0,1,.177.356c1.519,1.786,2.33,3.453.868,3.494-1.361.04-2.993,2.474-3.384,3.087a1.434,1.434,0,0,0,.045.146s1.915-3.182,3.472-3.227S1026.07,663.543,1024.359,661.63Z" transform="translate(-885.395 -571.138)" opacity="0.1"/>
    <path id="Path_544" data-name="Path 544" d="M1047.831,670.021c0,.4-.045.723-.1.723s-.1-.323-.1-.723.056-.211.111-.211S1047.831,669.621,1047.831,670.021Z" transform="translate(-907.257 -578.083)" fill="#ffd037"/>
    <path id="Path_545" data-name="Path 545" d="M1048.8,673.128c-.35.19-.656.306-.682.258s.236-.243.586-.439.212-.053.239,0S1049.153,672.936,1048.8,673.128Z" transform="translate(-907.673 -580.713)" fill="#ffd037"/>
    <path id="Path_546" data-name="Path 546" d="M995.307,661.63s-.868,1.134.4,2.848,2.314,3.16,1.891,4.229c0,0-1.913-3.182-3.472-3.227S993.6,663.543,995.307,661.63Z" transform="translate(-860.93 -571.138)" fill="#0b032d"/>
    <path id="Path_547" data-name="Path 547" d="M995.307,661.63a1.409,1.409,0,0,0-.177.356c-1.519,1.786-2.33,3.453-.868,3.494,1.36.04,2.993,2.474,3.384,3.087a1.128,1.128,0,0,1-.047.146s-1.913-3.182-3.472-3.227S993.6,663.543,995.307,661.63Z" transform="translate(-860.93 -571.138)" opacity="0.1"/>
    <path id="Path_548" data-name="Path 548" d="M995.64,670.021c0,.4.044.723.1.723s.1-.323.1-.723-.057-.211-.111-.211S995.64,669.621,995.64,670.021Z" transform="translate(-862.877 -578.083)" fill="#ffd037"/>
    <path id="Path_549" data-name="Path 549" d="M990.618,673.128c.35.19.656.306.682.258s-.236-.243-.586-.439-.212-.053-.239,0S990.267,672.936,990.618,673.128Z" transform="translate(-858.408 -580.713)" fill="#ffd037"/>
    <ellipse id="Ellipse_11" data-name="Ellipse 11" cx="9.075" cy="1.392" rx="9.075" ry="1.392" transform="translate(127.595 103.467)" fill="#0b032d" opacity="0.1"/>
    <path id="Path_550" data-name="Path 550" d="M999.742,696.44l-.044.354-.061.5-.025.209-.062.5-.026.209-.06.5-.7,5.694c-.061.508-.891.9-1.894.9h-3.608c-1,0-1.831-.4-1.894-.9l-.7-5.694-.061-.5-.025-.209-.061-.5-.026-.209-.06-.5-.044-.354c-.034-.293.414-.53.982-.53h7.38C999.328,695.91,999.777,696.152,999.742,696.44Z" transform="translate(-858.402 -600.401)" fill="#65617d"/>
    <path id="Path_551" data-name="Path 551" d="M911.385,658.53l-.06.5h-9.133l-.061-.5Z" transform="translate(-770.088 -562.137)" fill="#9d9cb5"/>
    <path id="Path_552" data-name="Path 552" d="M911.8,663.38l-.06.5h-8.961l-.061-.5Z" transform="translate(-770.592 -566.277)" fill="#9d9cb5"/>
    <path id="Path_553" data-name="Path 553" d="M912.228,668.23l-.062.5H903.38l-.06-.5Z" transform="translate(-771.104 -570.417)" fill="#9d9cb5"/>
  </g>
</svg>
